<?xml version="1.0" standalone="no"?>
<!DOCTYPE svg PUBLIC "-//W3C//DTD SVG 20010904//EN"
 "http://www.w3.org/TR/2001/REC-SVG-20010904/DTD/svg10.dtd">
<svg version="1.0" xmlns="http://www.w3.org/2000/svg"
 width="400.000000pt" height="400.000000pt" viewBox="0 0 400.000000 400.000000"
 preserveAspectRatio="xMidYMid meet">
<metadata>
Created by potrace 1.11, written by Peter Selinger 2001-2013
</metadata>
<g transform="translate(0.000000,400.000000) scale(0.100000,-0.100000)"
fill="#000000" stroke="none">
<path d="M1786 3214 c-246 -44 -477 -166 -657 -346 -423 -423 -480 -1087 -135
-1577 223 -316 612 -525 968 -518 92 2 98 3 127 31 54 52 60 122 15 183 -29
38 -63 50 -174 57 -319 21 -616 212 -772 496 -237 431 -102 982 308 1256 163
109 307 154 504 159 217 6 384 -41 556 -154 373 -247 527 -713 374 -1132 -47
-130 -87 -169 -172 -169 -60 0 -108 28 -135 80 -23 43 -23 44 -23 492 0 496
-1 500 -62 538 -68 41 -159 16 -191 -53 l-17 -35 -76 39 c-140 70 -298 88
-447 50 -216 -56 -371 -204 -453 -436 -14 -38 -18 -80 -18 -180 0 -118 3 -137
28 -205 116 -307 419 -480 729 -415 74 15 194 67 236 102 l25 20 34 -56 c59
-98 122 -151 225 -190 106 -39 225 -32 333 19 137 66 235 225 289 470 25 114
31 345 11 456 -91 526 -491 928 -1013 1019 -106 19 -311 18 -417 -1z m298
-887 c159 -73 245 -249 202 -415 -51 -198 -244 -317 -436 -268 -129 33 -222
121 -261 249 -59 191 47 389 244 453 64 21 183 12 251 -19z"/>
</g>
</svg>
